<?xml version="1.0" encoding="utf-8"?>
<!-- Generator: Adobe Illustrator 23.0.0, SVG Export Plug-In . SVG Version: 6.00 Build 0)  -->
<svg version="1.1" id="Calque_1" xmlns="http://www.w3.org/2000/svg" xmlns:xlink="http://www.w3.org/1999/xlink" x="0px" y="0px"
	 viewBox="0 0 16 16" style="enable-background:new 0 0 16 16;" xml:space="preserve">
<style type="text/css">
	.st0{fill:#D8AC6A;}
	.st1{fill:#F38B76;}
	.st2{fill:#8DD28A;}
	.st3{fill:#7AC1FF;}
</style>
<path class="st0" d="M12.9,9.7l0-1.3c0-0.5-0.2-1-0.6-1.3C12,6.6,11.5,6.4,11,6.4H6.4V6.2c0-0.5-0.2-1-0.6-1.3
	C5.5,4.5,5.1,4.3,4.6,4.3H1.9c-0.5,0-1,0.2-1.3,0.6C0.2,5.2,0,5.7,0,6.2v8l1.1-0.9V6.2h0c0-0.2,0.1-0.4,0.2-0.6
	c0.2-0.2,0.3-0.2,0.6-0.2h2.7c0.2,0,0.4,0.1,0.6,0.2C5.3,5.8,5.4,6,5.4,6.2v0.5c0,0.2,0.1,0.4,0.2,0.6c0.2,0.2,0.3,0.2,0.6,0.2H11
	c0.2,0,0.4,0.1,0.6,0.2c0.2,0.2,0.2,0.3,0.2,0.6v1.3L12.9,9.7z"/>
<g>
	<g>
		<path class="st1" d="M15,1.2L15,1.2v7.3l-7.3,0l0-7.3H15 M15,0.2H7.7c-0.6,0-1,0.4-1,1v7.3c0,0.6,0.4,1,1,1H15c0.6,0,1-0.4,1-1
			V1.2C16,0.6,15.6,0.2,15,0.2L15,0.2z"/>
	</g>
	<g>
		<path class="st2" d="M5.7,3.1c2,0,3.7,1.6,3.7,3.7s-1.6,3.7-3.7,3.7S2.1,8.8,2.1,6.7S3.7,3.1,5.7,3.1 M5.7,2.1
			c-2.6,0-4.7,2.1-4.7,4.7s2.1,4.7,4.7,4.7s4.7-2.1,4.7-4.7S8.3,2.1,5.7,2.1L5.7,2.1z"/>
	</g>
	<g>
		<path class="st3" d="M10.6,5L10.6,5l4.2,7.3l-8.4,0L10.6,5C10.6,5,10.6,5,10.6,5 M10.6,4c-0.3,0-0.7,0.2-0.9,0.5l-4.2,7.3
			c-0.4,0.7,0.1,1.5,0.9,1.5h8.4c0.8,0,1.3-0.8,0.9-1.5l-4.2-7.3C11.3,4.2,10.9,4,10.6,4L10.6,4z"/>
	</g>
</g>
<path class="st0" d="M0,14.2c0,0.5,0.2,1,0.6,1.3c0.4,0.4,0.8,0.6,1.3,0.6H11c0.4,0,0.8-0.1,1.2-0.3c0.4-0.2,0.7-0.4,1-0.7l2.5-3
	c0.3-0.3,0.4-0.7,0.4-1c0-0.2,0-0.4-0.1-0.6c-0.1-0.3-0.3-0.5-0.6-0.6c-0.3-0.1-0.5-0.2-0.8-0.2h-1.6l-1.1,0H5.4
	C5,9.7,4.6,9.8,4.2,10c-0.4,0.2-0.7,0.4-1,0.7l-2.1,2.6L0,14.2z"/>
</svg>
