<?xml version="1.0" encoding="utf-8"?>
<!-- Generator: Adobe Illustrator 23.0.0, SVG Export Plug-In . SVG Version: 6.00 Build 0)  -->
<svg version="1.1" id="Calque_1" xmlns="http://www.w3.org/2000/svg" xmlns:xlink="http://www.w3.org/1999/xlink" x="0px" y="0px"
	 viewBox="0 0 16 16" style="enable-background:new 0 0 16 16;" xml:space="preserve">
<style type="text/css">
	.st0{fill:#F38B76;}
	.st1{fill:#8DD28A;}
	.st2{fill:#7AC1FF;}
</style>
<g>
	<path class="st0" d="M15,2L15,2v8l-8,0l0-8H15 M15,1H7C6.4,1,6,1.4,6,2v8c0,0.6,0.4,1,1,1h8c0.6,0,1-0.4,1-1V2C16,1.4,15.6,1,15,1
		L15,1z"/>
</g>
<g>
	<path class="st1" d="M5,4c2.2,0,4,1.8,4,4s-1.8,4-4,4s-4-1.8-4-4S2.8,4,5,4 M5,3C2.2,3,0,5.2,0,8s2.2,5,5,5s5-2.2,5-5S7.8,3,5,3
		L5,3z"/>
</g>
<g>
	<path class="st2" d="M10.2,6L10.2,6l4.6,8l-9.2,0L10.2,6C10.2,6,10.2,6,10.2,6 M10.2,5C9.9,5,9.5,5.2,9.3,5.5l-4.6,8
		C4.3,14.2,4.8,15,5.6,15h9.2c0.8,0,1.3-0.8,0.9-1.5l-4.6-8C10.9,5.2,10.5,5,10.2,5L10.2,5z"/>
</g>
</svg>
