<?xml version="1.0" encoding="utf-8"?>
<!-- Generator: Adobe Illustrator 23.0.0, SVG Export Plug-In . SVG Version: 6.00 Build 0)  -->
<svg version="1.1" id="Layer_1" xmlns="http://www.w3.org/2000/svg" xmlns:xlink="http://www.w3.org/1999/xlink" x="0px" y="0px"
	 viewBox="0 0 512 512" style="enable-background:new 0 0 512 512;" xml:space="preserve">
			<path d="M471.6,235.8h-77.5c0-31.6-40.4-31.6-40.4,0h-77.5v-77.5c31.6,0,31.6-40.4,0-40.4V40.4c33.2,0,28.5-40.4,3.4-40.4h-47.2
				c-25.6,0-29.3,40.4,3.4,40.4v77.5c-31.9,0-31.3,40.4,0,40.4v77.5h-77.5c0-31.4-40.4-31.6-40.4,0H40.4c0-33.2-40.4-28.5-40.4-3.4
				v47.2c0,25.1,40.4,29.8,40.4-3.4h77.5c0,31.4,40.4,31.8,40.4,0h77.5v77.5c-31.6,0-31.6,40.4,0,40.4v77.5
				c-33.2,0-28.5,40.4-3.4,40.4h47.2c25.2,0,29.8-40.4-3.4-40.4v-77.5h3.4c25.2,0,29.8-40.4-3.4-40.4v-77.5h77.5
				c0,31.6,40.4,31.6,40.4,0h77.5c0,32.6,40.4,29,40.4,3.4v-47.2C512,207.3,471.6,202.6,471.6,235.8z"/>
</svg>
