<?xml version="1.0" encoding="utf-8"?>
<!-- Generator: Adobe Illustrator 23.0.0, SVG Export Plug-In . SVG Version: 6.00 Build 0)  -->
<svg version="1.1" id="Calque_1" xmlns="http://www.w3.org/2000/svg" xmlns:xlink="http://www.w3.org/1999/xlink" x="0px" y="0px"
	 viewBox="0 0 16 16" style="enable-background:new 0 0 16 16;" xml:space="preserve">
<style type="text/css">
	.st0{stroke:#000000;stroke-miterlimit:10;}
</style>
<g>
	<path class="st0" d="M3.8,12.9h-3l0.1-0.4c0.2,0,0.3-0.1,0.4-0.1s0.2-0.1,0.2-0.2c0.1-0.1,0.1-0.3,0.2-0.5c0.1-0.2,0.2-0.5,0.2-1
		l1.5-7.1H2.6c-0.3,0-0.5,0-0.7,0.1S1.5,4,1.4,4.3C1.2,4.5,1,4.9,0.7,5.4H0L0.5,3h7.6L7.5,5.5H6.8c0-0.5,0-0.8,0-1.1S6.7,4.1,6.7,4
		C6.6,3.8,6.5,3.8,6.4,3.7c-0.1,0-0.3-0.1-0.5-0.1H4.8l-1.6,7.1c0,0.2-0.1,0.3-0.1,0.4c0,0.1,0,0.2,0,0.4c0,0.1,0,0.2,0,0.3
		c0,0.1,0,0.3,0.1,0.4c0,0.1,0.1,0.1,0.2,0.2c0.1,0,0.3,0.1,0.5,0.1L3.8,12.9z"/>
	<path class="st0" d="M11.8,9.6c-0.1-0.4-0.1-0.7-0.2-1.1c-0.1-0.4-0.2-0.7-0.2-1c-0.1-0.3-0.1-0.5-0.2-0.6S11,6.8,10.9,6.7
		s-0.1-0.1-0.2-0.1c-0.1,0-0.2,0-0.3,0.1c-0.1,0-0.2,0.1-0.3,0.2c-0.1,0.1-0.2,0.3-0.4,0.5L9.3,7.2c0.3-0.5,0.6-0.8,0.9-1
		s0.6-0.3,1-0.3c0.1,0,0.3,0,0.4,0.1S11.8,6,11.9,6C12,6.1,12,6.2,12.1,6.3s0.1,0.3,0.2,0.5c0.1,0.2,0.1,0.4,0.2,0.7
		s0.1,0.6,0.1,0.9h0.1c0.5-0.7,0.8-1.1,1.1-1.4c0.2-0.3,0.4-0.5,0.6-0.7s0.3-0.3,0.5-0.3s0.4-0.1,0.6-0.1c0.2,0,0.4,0,0.6,0.1
		l-0.3,1.3h-0.5c0-0.2-0.1-0.3-0.3-0.3c0,0-0.1,0-0.1,0c0,0-0.1,0-0.2,0.1c-0.1,0-0.2,0.1-0.3,0.3c-0.1,0.1-0.3,0.3-0.5,0.5
		c-0.2,0.2-0.3,0.4-0.5,0.6l-0.5,0.6c0.1,0.5,0.2,0.9,0.2,1.2c0.1,0.3,0.1,0.6,0.2,0.8s0.1,0.4,0.2,0.5c0,0.1,0.1,0.2,0.1,0.3
		s0.1,0.1,0.2,0.1c0.1,0,0.1,0,0.2,0c0.1,0,0.3-0.1,0.4-0.2s0.3-0.3,0.5-0.7l0.5,0.3c-0.3,0.5-0.6,0.9-0.9,1.1
		c-0.3,0.2-0.6,0.3-1,0.3c-0.2,0-0.4,0-0.5-0.1c-0.1-0.1-0.3-0.2-0.4-0.4s-0.2-0.4-0.3-0.8c-0.1-0.6-0.2-1.1-0.3-1.4h-0.1
		c-0.5,0.7-0.9,1.2-1.1,1.5c-0.2,0.3-0.5,0.5-0.6,0.7c-0.2,0.1-0.3,0.3-0.5,0.3C9.6,13,9.3,13,9.1,13c-0.2,0-0.4,0-0.6-0.1l0.3-1.3
		h0.5c0,0.2,0.1,0.3,0.3,0.3c0.1,0,0.1,0,0.2-0.1c0.1,0,0.2-0.1,0.3-0.3c0.1-0.1,0.3-0.4,0.6-0.6C11,10.6,11.3,10.2,11.8,9.6z"/>
</g>
</svg>
