<?xml version="1.0" encoding="utf-8"?>
<!-- Generator: Adobe Illustrator 23.0.0, SVG Export Plug-In . SVG Version: 6.00 Build 0)  -->
<svg version="1.1" id="Capa_1" xmlns="http://www.w3.org/2000/svg" xmlns:xlink="http://www.w3.org/1999/xlink" x="0px" y="0px"
	 viewBox="0 0 16 16" style="enable-background:new 0 0 16 16;" xml:space="preserve">
<style type="text/css">
	.st0{fill:#FFFFFF;}
</style>
<path class="st0" d="M12.4,5.9h-0.8V3.3C11.6,1.5,10,0,8.2,0S4.8,1.5,4.8,3.3v2.6H4c-1,0-1.9,0.8-1.9,1.9v6.4C2.1,15.2,3,16,4,16
			h8.4c1,0,1.9-0.8,1.9-1.9V7.8C14.2,6.7,13.4,5.9,12.4,5.9z M6.1,3.3c0-1.1,1-2.1,2.1-2.1s2.1,0.9,2.1,2.1v2.6H6.1V3.3L6.1,3.3z
			 M13,14.1c0,0.3-0.3,0.6-0.6,0.6H4c-0.3,0-0.6-0.3-0.6-0.6V7.8c0-0.3,0.3-0.6,0.6-0.6h8.4c0.3,0,0.6,0.3,0.6,0.6V14.1z"/>
<path class="st0" d="M8.2,8.9C7.5,8.9,7,9.5,7,10.1c0,0.4,0.2,0.8,0.5,1v1.4c0,0.3,0.3,0.6,0.6,0.6s0.6-0.3,0.6-0.6v-1.4
			c0.3-0.2,0.5-0.6,0.5-1C9.3,9.5,8.8,8.9,8.2,8.9z"/>
</svg>
